<?xml version="1.0" encoding="UTF-8"?>
<svg version="1.1" xmlns="http://www.w3.org/2000/svg" width="230" height="209">
<path d="M0 0 C75.9 0 151.8 0 230 0 C230 68.97 230 137.94 230 209 C154.1 209 78.2 209 0 209 C0 140.03 0 71.06 0 0 Z " fill="#FEFEFE" transform="translate(0,0)"/>
<path d="M0 0 C24.75 0 49.5 0 75 0 C73.7393739 3.15156524 72.53635547 6.04171894 71.00390625 9.02978516 C70.61589844 9.78893219 70.22789062 10.54807922 69.828125 11.33023071 C69.41046875 12.1416452 68.9928125 12.95305969 68.5625 13.7890625 C68.12292969 14.64696381 67.68335938 15.50486511 67.23046875 16.38876343 C66.29678627 18.20990994 65.36202666 20.03050457 64.42626953 21.85058594 C63.03042891 24.56580895 61.63794953 27.28273258 60.24609375 30 C51.65560356 46.75260228 42.85981278 63.38785104 34 80 C46.87 80 59.74 80 73 80 C73 86.6 73 93.2 73 100 C51.22 100 29.44 100 7 100 C13.24914589 115.37922498 13.24914589 115.37922498 19.50585938 130.75537109 C20.2854318 132.67794819 21.06474655 134.6006298 21.84375 136.5234375 C22.45911621 138.03031128 22.45911621 138.03031128 23.08691406 139.56762695 C23.47266602 140.52161377 23.85841797 141.47560059 24.25585938 142.45849609 C24.59339233 143.28900482 24.93092529 144.11951355 25.27868652 144.97518921 C26 147 26 147 26 149 C17.42 149 8.84 149 0 149 C-2.88105193 142.08547537 -5.6312216 135.1063352 -8 128 C-22.19 128 -36.38 128 -51 128 C-53.31 134.6 -55.62 141.2 -58 148 C-59 149 -59 149 -61.50024414 149.11352539 C-62.58426514 149.10828857 -63.66828613 149.10305176 -64.78515625 149.09765625 C-65.95498047 149.09443359 -67.12480469 149.09121094 -68.33007812 149.08789062 C-69.56177734 149.07951172 -70.79347656 149.07113281 -72.0625 149.0625 C-73.91584961 149.05573242 -73.91584961 149.05573242 -75.80664062 149.04882812 C-78.87114117 149.03699608 -81.93554721 149.02051173 -85 149 C-82.89221701 142.40580383 -80.47601689 135.9766946 -77.89453125 129.5546875 C-77.49796829 128.56262299 -77.10140533 127.57055847 -76.69282532 126.5484314 C-75.40225453 123.3227957 -74.10761515 120.09881352 -72.8125 116.875 C-71.91453505 114.63509745 -71.01658599 112.39518853 -70.11865234 110.15527344 C-64.50487775 96.16608501 -58.84561069 82.19583974 -53.125 68.25 C-52.64216049 67.07216949 -52.64216049 67.07216949 -52.14956665 65.87054443 C-48.18546853 56.20890941 -44.13670888 46.58906828 -40 37 C-33.07 37 -26.14 37 -19 37 C-16.99781314 41.74908956 -14.99737317 46.49888647 -13 51.25 C-12.7047644 51.95207581 -12.40952881 52.65415161 -12.10534668 53.37750244 C-8.06054437 63.00313935 -4.07648585 72.64767568 -0.2734375 82.37207031 C0.92183561 85.9511193 0.92183561 85.9511193 3 89 C3.55349121 87.91807373 4.10698242 86.83614746 4.67724609 85.72143555 C6.78226226 81.60742604 8.8887411 77.49416679 10.99560547 73.38110352 C11.89768131 71.61958091 12.79938924 69.85786984 13.70068359 68.09594727 C18.52113391 58.67317875 23.36369767 49.26297312 28.2890625 39.89453125 C28.67460297 39.16054611 29.06014343 38.42656097 29.45736694 37.67033386 C32.58082481 31.74677463 35.79235612 25.88068045 39 20 C26.13 20 13.26 20 0 20 C0 13.4 0 6.8 0 0 Z " fill="#0FC0DF" transform="translate(114,25)"/>
<path d="M0 0 C2.73488185 2.73488185 3.57364562 5.94808692 4.8203125 9.52734375 C5.21559647 10.64442467 5.21559647 10.64442467 5.61886597 11.78407288 C6.17464842 13.35921599 6.72756514 14.93537276 7.27783203 16.51245117 C8.12138714 18.92715805 8.97600562 21.33773665 9.83203125 23.74804688 C10.37045886 25.27841126 10.90824102 26.80900292 11.4453125 28.33984375 C11.70152374 29.06179428 11.95773499 29.78374481 12.22171021 30.52757263 C13.2464904 33.48199872 14 35.84869625 14 39 C5.09 39 -3.82 39 -13 39 C-11.68750058 33.09375261 -10.46674338 28.11415955 -8.3984375 22.55859375 C-8.1571109 21.90544693 -7.9157843 21.25230011 -7.66714478 20.57936096 C-6.90854013 18.53000327 -6.14194978 16.48374717 -5.375 14.4375 C-4.85363074 13.03340201 -4.33279306 11.62910651 -3.8125 10.22460938 C-2.5477867 6.81410757 -1.27590226 3.40633417 0 0 Z " fill="#F8FDFE" transform="translate(84,92)"/>
</svg>
