<?xml version="1.0" encoding="UTF-8"?>
<svg version="1.1" xmlns="http://www.w3.org/2000/svg" width="500" height="500">
<path d="M0 0 C2.83857918 -0.36914349 2.83857918 -0.36914349 6.54251099 -0.36076355 C7.22208953 -0.36332682 7.90166807 -0.3658901 8.6018399 -0.36853105 C10.88990836 -0.37349136 13.17732389 -0.35693989 15.46533203 -0.34057617 C17.10107406 -0.33973038 18.73681723 -0.3402041 20.37255859 -0.34190369 C24.82281051 -0.34276694 29.27282147 -0.32508793 33.72301722 -0.30418181 C38.37017258 -0.2854699 43.01733304 -0.28366891 47.66452026 -0.28010559 C56.4689166 -0.27076895 65.27320162 -0.24613334 74.07754886 -0.21605712 C84.09915431 -0.18256339 94.12076497 -0.16603977 104.14241242 -0.15097082 C124.76167049 -0.11958515 145.38082824 -0.06679329 166 0 C164.69358428 4.22837921 163.15890297 7.43406357 160.57299805 11.04785156 C156.59554156 16.35104576 156.59554156 16.35104576 154.7734375 22.55859375 C155.15447639 24.72744253 155.15447639 24.72744253 155.72119141 26.73339844 C156.06355169 29.5166496 155.49547932 30.89945068 154.375 33.45703125 C154.00205811 34.33278809 153.62911621 35.20854492 153.24487305 36.11083984 C152.83406494 37.0642627 152.42325684 38.01768555 152 39 C151.14672585 41.11101918 150.29928154 43.22440214 149.45703125 45.33984375 C149.02326172 46.42201172 148.58949219 47.50417969 148.14257812 48.61914062 C147.70365234 49.71419922 147.26472656 50.80925781 146.8125 51.9375 C146.13670898 53.62069336 146.13670898 53.62069336 145.44726562 55.33789062 C144.80241211 56.94760742 144.80241211 56.94760742 144.14453125 58.58984375 C143.56215698 60.04185181 143.56215698 60.04185181 142.96801758 61.52319336 C140.7970621 67.07788272 140.14698775 72.2093367 142 78 C142.66 78 143.32 78 144 78 C147.77184911 85.59758178 151.18502018 93.43920301 149 102 C148.08631651 103.21403655 147.13317605 104.39874842 146.15625 105.5625 C142.02875958 110.74377864 141.0816546 116.36376122 139.8125 122.75 C139.34090052 124.97418267 138.86824891 127.19814251 138.39453125 129.421875 C138.16975098 130.50404297 137.9449707 131.58621094 137.71337891 132.70117188 C136.60360159 137.83303739 135.31221312 142.91668293 134 148 C134.78246094 148.30252686 135.56492187 148.60505371 136.37109375 148.91674805 C145.26312753 152.58074822 152.79145348 160.45341323 157 169 C159.1715649 177.2790912 158.82431497 185.35137005 155 193 C154.22865196 195.64236149 153.52082351 198.29294545 152.84375 200.9609375 C152.5653125 201.63382813 152.286875 202.30671875 152 203 C151.01 203.33 150.02 203.66 149 204 C148.84144531 203.29875 148.68289063 202.5975 148.51953125 201.875 C144.15274315 184.11833678 131.60503333 175.00848692 116.50717163 165.84446716 C105.76509366 159.69354539 96.54955505 158.87095382 84.3515625 159.03515625 C82.51832774 159.03016205 80.68509971 159.02150131 78.85189819 159.00938416 C74.08152417 158.98684879 69.31255241 159.01046103 64.54229736 159.04541016 C58.71148874 159.07956766 52.88065368 159.05939665 47.04979515 159.04637051 C42.52329471 159.03710256 37.99731158 159.03612788 33.47085571 159.06056213 C32.23216988 159.06495049 32.23216988 159.06495049 30.96846008 159.06942749 C29.42508419 159.07523528 27.88171624 159.08487779 26.33839417 159.09901428 C21.2247651 159.11238255 21.2247651 159.11238255 19 158 C19.10441406 157.11699219 19.20882812 156.23398437 19.31640625 155.32421875 C19.76832179 148.64591133 19.77306751 143.94297139 15.4375 138.625 C14.17203433 137.27233077 12.90286137 135.92229144 11.59375 134.61181641 C9.70497185 132.70162748 7.88477985 130.73541889 6.0625 128.76171875 C2.40695828 124.81032029 -1.28515259 120.8956293 -5 117 C-7.05075158 118.3118604 -7.05075158 118.3118604 -9 120 C-9.05912907 121.99912575 -9.05083103 124.00064605 -9 126 C-10.13671875 129.2265625 -10.13671875 129.2265625 -11.6875 132.625 C-12.24023852 133.85777936 -12.79231014 135.09085793 -13.34375 136.32421875 C-13.6221875 136.9382959 -13.900625 137.55237305 -14.1875 138.18505859 C-15.40888701 140.91336119 -16.54749845 143.67438649 -17.6875 146.4375 C-19.42709684 150.64003121 -21.20787987 154.81838635 -23 159 C-37.85 159 -52.7 159 -68 159 C-61.5671729 141.84579439 -61.5671729 141.84579439 -57.5625 133.3984375 C-55.78635508 129.5353223 -54.16384743 125.62545769 -52.5625 121.6875 C-50.36111514 116.2797894 -48.11006859 110.9029027 -45.75 105.5625 C-39.12771671 90.53658767 -32.82107376 75.37322869 -26.5 60.21875 C-25.69899537 58.2998774 -24.89796983 56.38101353 -24.09692383 54.4621582 C-22.51837683 50.68062825 -20.9431991 46.89771831 -19.36987305 43.11401367 C-15.7927932 34.53071631 -12.15597806 26.00481777 -8.2043457 17.58618164 C-6.34807874 13.60008071 -4.71849305 9.53998605 -3.078125 5.4609375 C-2 3 -2 3 0 0 Z M23 46 C19.95842058 51.22771463 18.49389276 54.92671312 19 61 C18.01 61 17.02 61 16 61 C13.83332921 66.20950452 11.67911608 71.4239169 9.53637695 76.64331055 C8.80542225 78.41881105 8.07105978 80.19291253 7.33325195 81.96557617 C6.2744055 84.51122248 5.22784506 87.06161927 4.18359375 89.61328125 C3.85032578 90.40712723 3.5170578 91.20097321 3.1736908 92.01887512 C1.24671469 96.41149452 1.24671469 96.41149452 2 101 C4.4788213 101.19389096 6.95780931 101.38040123 9.4375 101.5625 C10.14455078 101.61857422 10.85160156 101.67464844 11.58007812 101.73242188 C13.38427837 101.86190993 15.19231952 101.93521608 17 102 C17.33 101.67 17.66 101.34 18 101 C18.66 101.99 19.32 102.98 20 104 C22.81014945 100.82960483 23.38324093 98.79457611 23.43237305 94.58886719 C23.45216721 93.50804871 23.47196136 92.42723022 23.49235535 91.31365967 C23.49874527 90.15312073 23.50513519 88.99258179 23.51171875 87.796875 C23.52966995 86.60394836 23.54762115 85.41102173 23.56611633 84.1819458 C23.62030371 80.37133317 23.6541431 76.56084641 23.6875 72.75 C23.72066551 70.16664912 23.75515445 67.58331487 23.79101562 65 C23.87603522 58.66677953 23.94434958 52.33354294 24 46 C23.67 46 23.34 46 23 46 Z " fill="#1C96CB" transform="translate(211,144)"/>
<path d="M0 0 C1.56139206 0.0001133 1.56139206 0.0001133 3.15432739 0.00022888 C4.28144135 0.00539017 5.4085553 0.01055145 6.56982422 0.01586914 C7.72118866 0.01728409 8.8725531 0.01869904 10.05880737 0.02015686 C13.74740158 0.02576823 17.43593576 0.03832269 21.12451172 0.05102539 C23.62060459 0.05603892 26.11669842 0.06060208 28.61279297 0.06469727 C34.7417198 0.07574136 40.87061147 0.0924906 46.99951172 0.11352539 C46.50467037 7.04008465 45.63260879 13.65426494 44.00341797 20.40258789 C43.80981186 21.23132416 43.61620575 22.06006042 43.41673279 22.91390991 C42.80545358 25.52381183 42.18404571 28.13116825 41.56201172 30.73852539 C41.14920534 32.49096552 40.73709109 34.24356883 40.32568359 35.99633789 C39.74378172 38.47476502 39.1609964 40.95293521 38.57264709 43.42984009 C37.33373467 48.64750565 36.14970419 53.87559333 34.99951172 59.11352539 C37.9167617 57.82317194 40.83326924 56.53115434 43.74951172 55.23852539 C44.57451172 54.8737207 45.39951172 54.50891602 46.24951172 54.13305664 C47.04873047 53.77856445 47.84794922 53.42407227 48.67138672 53.05883789 C49.77111816 52.57181396 49.77111816 52.57181396 50.89306641 52.07495117 C52.31184616 51.42739036 53.70934938 50.73131791 55.08251953 49.99194336 C56.99951172 49.11352539 56.99951172 49.11352539 59.99951172 49.11352539 C62.39783736 83.46800275 62.39783736 83.46800275 49.6796875 98.98608398 C46.86172561 102.55419208 44.55983095 106.42926511 42.18701172 110.30102539 C41.20331636 111.86217169 40.21758608 113.42203734 39.22998047 114.98071289 C34.81930786 121.97733471 30.44527696 128.99698185 26.07446289 136.01855469 C19.44697742 146.64824342 19.44697742 146.64824342 16.99951172 150.11352539 C16.66951172 150.11352539 16.33951172 150.11352539 15.99951172 150.11352539 C16.02013672 149.54504883 16.04076172 148.97657227 16.06201172 148.39086914 C15.96452439 144.7411871 15.8293937 142.08509454 13.39794922 139.23852539 C12.01163187 138.08236884 10.6025111 136.95317056 9.17529297 135.84790039 C7.03099955 134.13862521 5.33990452 132.38286708 3.56201172 130.30102539 C2.72089844 129.31682617 2.72089844 129.31682617 1.86279297 128.31274414 C0.94046875 127.22413086 0.94046875 127.22413086 -0.00048828 126.11352539 C-1.57371211 124.27150955 -3.15732744 122.43832513 -4.75048828 120.61352539 C-5.48783203 119.75758789 -6.22517578 118.90165039 -6.98486328 118.01977539 C-8.90138338 115.76996563 -8.90138338 115.76996563 -12.00048828 116.11352539 C-12.66048828 116.77352539 -13.32048828 117.43352539 -14.00048828 118.11352539 C-13.98630859 119.00813477 -13.97212891 119.90274414 -13.95751953 120.82446289 C-14.00880143 124.74985893 -15.06279496 127.17701861 -16.68798828 130.73852539 C-17.2407268 131.97130475 -17.79279842 133.20438332 -18.34423828 134.43774414 C-18.62267578 135.05182129 -18.90111328 135.66589844 -19.18798828 136.29858398 C-20.40937529 139.02688658 -21.54798673 141.78791188 -22.68798828 144.55102539 C-24.42758512 148.7535566 -26.20836815 152.93191174 -28.00048828 157.11352539 C-42.85048828 157.11352539 -57.70048828 157.11352539 -73.00048828 157.11352539 C-66.56766118 139.95931978 -66.56766118 139.95931978 -62.56298828 131.51196289 C-60.78684336 127.64884769 -59.16433571 123.73898308 -57.56298828 119.80102539 C-55.36160342 114.39331479 -53.11055687 109.01642809 -50.75048828 103.67602539 C-44.12820499 88.65011306 -37.82156204 73.48675408 -31.50048828 58.33227539 C-30.69948365 56.41340279 -29.89845811 54.49453892 -29.09741211 52.57568359 C-27.51886511 48.79415364 -25.94368739 45.0112437 -24.37036133 41.22753906 C-20.79415388 32.64643182 -17.15649588 24.12448623 -13.20483398 15.70849609 C-11.32670188 11.66173629 -9.70897656 7.5311422 -8.07861328 3.37915039 C-6.24292043 -0.47846501 -3.93068852 -0.00949442 0 0 Z M17.99951172 44.11352539 C14.9579323 49.34124002 13.49340448 53.04023851 13.99951172 59.11352539 C13.00951172 59.11352539 12.01951172 59.11352539 10.99951172 59.11352539 C8.83284093 64.32302991 6.6786278 69.53744229 4.53588867 74.75683594 C3.80493397 76.53233644 3.0705715 78.30643792 2.33276367 80.07910156 C1.27391722 82.62474787 0.22735678 85.17514466 -0.81689453 87.72680664 C-1.15016251 88.52065262 -1.48343048 89.3144986 -1.82679749 90.13240051 C-3.75377359 94.52501991 -3.75377359 94.52501991 -3.00048828 99.11352539 C-0.52166698 99.30741635 1.95732103 99.49392662 4.43701172 99.67602539 C5.1440625 99.73209961 5.85111328 99.78817383 6.57958984 99.84594727 C8.38379009 99.97543532 10.19183124 100.04874147 11.99951172 100.11352539 C12.32951172 99.78352539 12.65951172 99.45352539 12.99951172 99.11352539 C13.65951172 100.10352539 14.31951172 101.09352539 14.99951172 102.11352539 C17.80966117 98.94313022 18.38275265 96.9081015 18.43188477 92.70239258 C18.45167892 91.6215741 18.47147308 90.54075562 18.49186707 89.42718506 C18.49825699 88.26664612 18.50464691 87.10610718 18.51123047 85.91040039 C18.52918167 84.71747375 18.54713287 83.52454712 18.56562805 82.29547119 C18.61981543 78.48485856 18.65365481 74.6743718 18.68701172 70.86352539 C18.72017723 68.28017451 18.75466617 65.69684026 18.79052734 63.11352539 C18.87554694 56.78030492 18.9438613 50.44706833 18.99951172 44.11352539 C18.66951172 44.11352539 18.33951172 44.11352539 17.99951172 44.11352539 Z " fill="#070707" transform="translate(216.00048828125,145.886474609375)"/>
<path d="M0 0 C54.78 0 109.56 0 166 0 C165.34 1.98 164.68 3.96 164 6 C163.67 5.34 163.34 4.68 163 4 C163.33 3.34 163.66 2.68 164 2 C129.02 2 94.04 2 58 2 C57.67 4.64 57.34 7.28 57 10 C56.74145488 11.45411507 56.46365946 12.90519185 56.15209961 14.34887695 C55.99200912 15.0993782 55.83191864 15.84987946 55.66697693 16.62312317 C55.49714798 17.40362534 55.32731903 18.1841275 55.15234375 18.98828125 C54.97619034 19.81329636 54.80003693 20.63831146 54.61854553 21.48832703 C54.0613909 24.09708148 53.4999464 26.70488171 52.9375 29.3125 C52.19310818 32.76618698 51.45282489 36.22071956 50.71484375 39.67578125 C50.54299057 40.46640457 50.37113739 41.25702789 50.19407654 42.0716095 C49.54611288 45.10519044 49 47.88821872 49 51 C50.13542236 50.45996338 51.27084473 49.91992676 52.44067383 49.36352539 C56.64980844 47.3621089 60.86001756 45.36296184 65.07055664 43.36450195 C66.89344241 42.4989112 68.71603541 41.63270362 70.53833008 40.76586914 C73.15629755 39.52067743 75.77530665 38.27770102 78.39453125 37.03515625 C79.61811089 36.45230614 79.61811089 36.45230614 80.8664093 35.85768127 C81.62697128 35.49738327 82.38753326 35.13708527 83.17114258 34.76586914 C83.83954666 34.44832169 84.50795074 34.13077423 85.1966095 33.80360413 C89.19075677 32.02378261 92.34955118 31.89455001 96.6875 31.9375 C98.45673828 31.95103516 98.45673828 31.95103516 100.26171875 31.96484375 C101.16535156 31.97644531 102.06898438 31.98804688 103 32 C101.32647277 36.90449888 98.60141262 40.98808313 95.8125 45.3125 C94.72072773 47.02303783 93.62961253 48.73399517 92.5390625 50.4453125 C91.96188477 51.34926758 91.38470703 52.25322266 90.79003906 53.18457031 C87.72762982 58.0012238 84.70861396 62.84487846 81.6875 67.6875 C80.41406611 69.72656475 79.14062857 71.76562723 77.8671875 73.8046875 C76.5780682 75.86975621 75.28900587 77.93486049 74 80 C66.54920734 91.93704905 59.09483275 103.87116239 51.56884766 115.76098633 C46.79435612 123.31032073 42.06353138 130.88680923 37.33789062 138.46679688 C36.15401502 140.36434722 34.96642974 142.25958882 33.77490234 144.15234375 C32.5411047 146.13185072 31.32939452 148.12522647 30.13525391 150.12890625 C29.52987793 151.12792969 28.92450195 152.12695312 28.30078125 153.15625 C27.76235596 154.06181641 27.22393066 154.96738281 26.66918945 155.90039062 C25 158 25 158 22.91870117 158.86523438 C21 159 21 159 19 158 C19 152.72 19 147.44 19 142 C19.66 142.33 20.32 142.66 21 143 C21.59355614 145.64860427 21.74209269 148.29197322 22 151 C22.41137207 150.32759277 22.82274414 149.65518555 23.24658203 148.96240234 C36.97327032 126.54379388 36.97327032 126.54379388 43.52612305 116.27075195 C44.67967744 114.45849039 45.82433236 112.64053464 46.96020508 110.81713867 C49.63027281 106.5568185 52.34579463 102.48556 55.50390625 98.5703125 C66.70437298 84.08739686 65.63483713 68.55701808 65 51 C64.28344238 51.33845947 63.56688477 51.67691895 62.82861328 52.02563477 C59.59785063 53.54610162 56.36156622 55.05442914 53.125 56.5625 C51.43310547 57.36204102 51.43310547 57.36204102 49.70703125 58.17773438 C48.63066406 58.67724609 47.55429687 59.17675781 46.4453125 59.69140625 C45.45031738 60.15748291 44.45532227 60.62355957 43.43017578 61.10375977 C42.22723877 61.54739868 42.22723877 61.54739868 41 62 C40.01 61.505 40.01 61.505 39 61 C39.25168945 59.92331055 39.50337891 58.84662109 39.76269531 57.73730469 C40.72014539 53.63761988 41.67336752 49.53696062 42.62548828 45.43603516 C43.03356389 43.68089528 43.4426981 41.9260011 43.85302734 40.17138672 C44.4518744 37.60973385 45.04655297 35.04713899 45.640625 32.484375 C45.81684387 31.73452332 45.99306274 30.98467163 46.17462158 30.21209717 C48.33662876 20.8458202 50.11216323 11.43918386 52 2 C34.51 2.33 17.02 2.66 -1 3 C-0.67 2.01 -0.34 1.02 0 0 Z " fill="#F0F5F7" transform="translate(211,144)"/>
<path d="M0 0 C1.50390625 1.20703125 1.50390625 1.20703125 3 3 C3.21484375 5.19921875 3.21484375 5.19921875 2.9375 7.6875 C2.86402344 8.49574219 2.79054688 9.30398437 2.71484375 10.13671875 C1.92506716 13.30014083 0.65505779 15.78873036 -0.84790039 18.66479492 C-3.10808989 23.24600123 -4.85382547 28.04857127 -6.6875 32.8125 C-7.09033203 33.84826172 -7.49316406 34.88402344 -7.90820312 35.95117188 C-12.19683068 46.67340553 -12.19683068 46.67340553 -11 58 C-10.34 58 -9.68 58 -9 58 C-4.91412989 66.2301098 -3.26695722 72.81253055 -4 82 C-4.33 82 -4.66 82 -5 82 C-5.33 78.37 -5.66 74.74 -6 71 C-6.804375 72.32 -7.60875 73.64 -8.4375 75 C-18.86638964 90.40303746 -37.72811875 98.15971267 -54 106 C-54 106.66 -54 107.32 -54 108 C-55.75 107.875 -55.75 107.875 -58 107 C-60.3125 104.1875 -60.3125 104.1875 -62 101 C-61.75 98.625 -61.75 98.625 -61 97 C-59 100 -59 100 -58 102 C-52.03475299 101.06715737 -46.97772993 98.35674502 -41.58154297 95.75488281 C-39.77496636 94.88699397 -37.95977766 94.03710612 -36.14453125 93.1875 C-25.63889743 88.14943914 -15.20878919 82.03496119 -9.625 71.375 C-8.94665822 68.79730123 -8.77885095 66.65378864 -9 64 C-9.33 63.67 -9.66 63.34 -10 63 C-10.4115332 63.7439502 -10.82306641 64.48790039 -11.24707031 65.25439453 C-16.19822727 73.00936823 -24.35757731 77.78209497 -32.25 82.125 C-33.16370361 82.63708008 -34.07740723 83.14916016 -35.01879883 83.67675781 C-53.63316185 94 -53.63316185 94 -58 94 C-56.30218433 88.98645019 -53.47013129 84.7941103 -50.625 80.375 C-49.52986251 78.65760654 -48.43481277 76.94015713 -47.33984375 75.22265625 C-46.78151855 74.35012207 -46.22319336 73.47758789 -45.64794922 72.57861328 C-43.14709654 68.66542721 -40.66656895 64.73950959 -38.1875 60.8125 C-37.69958984 60.04059326 -37.21167969 59.26868652 -36.70898438 58.47338867 C-32.02230104 51.05205276 -27.37961248 43.60341589 -22.73413086 36.15625 C-17.69508771 28.0885961 -12.60180377 20.05645106 -7.47900391 12.04174805 C-4.93402178 8.05716866 -2.39686168 4.07635279 0 0 Z " fill="#FCFDFD" transform="translate(364,164)"/>
<path d="M0 0 C2.27494247 3.4124137 2.16780122 4.98914695 1.53125 8.953125 C0.67706731 12.24424066 -0.87054936 14.36620579 -3 17 C-3.43828125 17.54269531 -3.8765625 18.08539063 -4.328125 18.64453125 C-12.30823371 27.57177408 -24.55239296 32.38888371 -35.125 37.5625 C-36.03781738 38.01665283 -36.95063477 38.47080566 -37.89111328 38.9387207 C-38.75462402 39.35210693 -39.61813477 39.76549316 -40.5078125 40.19140625 C-41.27754395 40.56467041 -42.04727539 40.93793457 -42.84033203 41.32250977 C-45.37518342 42.11769546 -46.58117093 42.08259193 -49 41 C-50.25 37.9375 -50.25 37.9375 -51 35 C-47.57673299 32.83060404 -44.07128268 31.06722537 -40.37915039 29.40063477 C-17.29105068 19.698442 -17.29105068 19.698442 -0.74609375 2.23828125 C-0.49988281 1.49964844 -0.25367188 0.76101562 0 0 Z " fill="#9A9A9A" transform="translate(354,225)"/>
<path d="M0 0 C2.65499376 2.65499376 2.32897553 4.04963297 2.375 7.75 C2.29884791 13.06160852 1.45196658 15.83733442 -2 20 C-2.71573527 21.64619113 -3.4025696 23.30728055 -4 25 C-4.66 24.34 -5.32 23.68 -6 23 C-6.62261719 23.51046875 -6.62261719 23.51046875 -7.2578125 24.03125 C-13.73148307 29.12350969 -20.79499402 33.06191031 -28 37 C-28.97324219 37.53496094 -29.94648438 38.06992187 -30.94921875 38.62109375 C-38.37967376 42.54179721 -38.37967376 42.54179721 -43 42 C-45.8125 39.5 -45.8125 39.5 -48 37 C-44.69846773 34.97584848 -41.36681792 33.12759491 -37.90234375 31.3984375 C-15.57301405 21.05339007 -15.57301405 21.05339007 -0.625 2.5625 C-0.41875 1.716875 -0.2125 0.87125 0 0 Z " fill="#959697" transform="translate(357,233)"/>
<path d="M0 0 C2.44357085 0.26026198 4.86235193 0.46617248 7.3125 0.625 C9.28669922 0.76808594 9.28669922 0.76808594 11.30078125 0.9140625 C14.46299615 0.98752473 16.95780789 0.76482879 20 0 C20.33 0 20.66 0 21 0 C21 1.98 21 3.96 21 6 C9.45 6 -2.1 6 -14 6 C-11.69 8.64 -9.38 11.28 -7 14 C-7 14.99 -7 15.98 -7 17 C-8.29735507 18.04625409 -9.63266972 19.04701223 -11 20 C-11.33 20.66 -11.66 21.32 -12 22 C-31 1.53366174 -31 1.53366174 -31 0 C-26.90682137 -0.16754147 -22.81343505 -0.32810824 -18.71972656 -0.48217773 C-17.32674778 -0.53559149 -15.93384107 -0.59092043 -14.54101562 -0.64819336 C-12.54056398 -0.73012069 -10.5398125 -0.80462098 -8.5390625 -0.87890625 C-6.73236084 -0.94960327 -6.73236084 -0.94960327 -4.88916016 -1.02172852 C-2 -1 -2 -1 0 0 Z " fill="#F5F5F5" transform="translate(213,244)"/>
<path d="M0 0 C4.99637326 7.49455989 5.3945633 13.10040566 5 22 C4.67 22 4.34 22 4 22 C3.505 16.555 3.505 16.555 3 11 C2.195625 12.32 1.39125 13.64 0.5625 15 C-9.86638964 30.40303746 -28.72811875 38.15971267 -45 46 C-45 46.66 -45 47.32 -45 48 C-46.75 47.875 -46.75 47.875 -49 47 C-51.3125 44.1875 -51.3125 44.1875 -53 41 C-52.75 38.625 -52.75 38.625 -52 37 C-50 40 -50 40 -49 42 C-43.03475299 41.06715737 -37.97772993 38.35674502 -32.58154297 35.75488281 C-30.77496636 34.88699397 -28.95977766 34.03710612 -27.14453125 33.1875 C-16.5332122 28.09875694 -6.66176774 22.05214428 -0.625 11.625 C0.29726888 7.7514707 0.15535958 3.96166932 0 0 Z " fill="#F1F1F2" transform="translate(355,224)"/>
<path d="M0 0 C9.19699868 0.98442948 15.82117699 7.21240526 21.5625 14.125 C24.30515265 17.60320814 25.76094887 20.7465409 27 25 C27.33 25 27.66 25 28 25 C28.58823025 16.02948862 26.09941247 8.92183761 22 1 C27.63397021 5.72035342 29.59312961 10.71392699 30.28515625 18.00390625 C30.46329621 24.19233351 29.89553111 28.54303753 27 34 C26.32723284 35.6642135 25.65793165 37.32986582 25 39 C24.67 39 24.34 39 24 39 C23.97421875 38.09378906 23.9484375 37.18757813 23.921875 36.25390625 C23.39911318 25.02640797 21.66102197 17.74558122 13.37109375 9.92578125 C9.83139215 7.0508671 6.03711882 4.68110756 2.125 2.34765625 C1.42375 1.90292969 0.7225 1.45820313 0 1 C0 0.67 0 0.34 0 0 Z " fill="#B1EEFD" transform="translate(339,303)"/>
<path d="M0 0 C8.20747415 0.83404377 14.78432799 6.2637878 20.25 12.25 C22 15 22 15 21.609375 17.171875 C21.40828125 17.77515625 21.2071875 18.3784375 21 19 C20.48953125 18.3709375 19.9790625 17.741875 19.453125 17.09375 C14.22885525 10.94319129 9.134032 6.7311035 2.30859375 2.49609375 C1.54675781 2.00238281 0.78492188 1.50867188 0 1 C0 0.67 0 0.34 0 0 Z " fill="#CCF1FC" transform="translate(339,303)"/>
<path d="M0 0 C4.77470312 4.00042694 6.83413357 7.86772621 8 14 C8.37469983 19.42292851 8.54734425 24.74651669 7 30 C6.34 30 5.68 30 5 30 C4.67 28.02 4.34 26.04 4 24 C4.66 24 5.32 24 6 24 C6.58823025 15.02948862 4.09941247 7.92183761 0 0 Z " fill="#ADEDFD" transform="translate(361,304)"/>
<path d="M0 0 C5.7097955 0.41778991 8.60957142 2.57546571 13 6 C12.34 6.66 11.68 7.32 11 8 C9.16399255 6.85845641 7.33125195 5.71165684 5.5 4.5625 C4.4790625 3.92441406 3.458125 3.28632813 2.40625 2.62890625 C1.6121875 2.09136719 0.818125 1.55382812 0 1 C0 0.67 0 0.34 0 0 Z " fill="#DCF4FB" transform="translate(339,303)"/>
<path d="M0 0 C2.4702708 2.4702708 2.76871663 3.53074952 3 7 C2.19845547 9.47656706 1.15158796 11.65076056 0 14 C-0.33 14 -0.66 14 -1 14 C-0.67 9.38 -0.34 4.76 0 0 Z " fill="#F0FBFE" transform="translate(364,328)"/>
<path d="M0 0 C0.66 0.33 1.32 0.66 2 1 C1.67 1.99 1.34 2.98 1 4 C-2.0625 5.1875 -2.0625 5.1875 -5 6 C-5.33 5.01 -5.66 4.02 -6 3 C-4.03533587 1.93224776 -2.03144641 0.93446535 0 0 Z " fill="#E9E9E9" transform="translate(315,263)"/>
</svg>
