<?xml version="1.0" encoding="UTF-8"?>
<svg version="1.1" xmlns="http://www.w3.org/2000/svg" width="392" height="294">
<path d="M0 0 C129.36 0 258.72 0 392 0 C392 97.02 392 194.04 392 294 C262.64 294 133.28 294 0 294 C0 196.98 0 99.96 0 0 Z " fill="#FEFEFE" transform="translate(0,0)"/>
<path d="M0 0 C34.98 0 69.96 0 106 0 C104.62191266 3.44521836 103.53527676 5.95948877 101.6015625 8.9765625 C100.89193359 10.0912793 100.89193359 10.0912793 100.16796875 11.22851562 C99.65878906 12.01935547 99.14960938 12.81019531 98.625 13.625 C97.5337441 15.3358673 96.44260139 17.0468068 95.3515625 18.7578125 C94.7937207 19.62954102 94.23587891 20.50126953 93.66113281 21.39941406 C91.09122429 25.42273353 88.54616611 29.46163082 86 33.5 C85.00013493 35.08341854 84.00013452 36.66675163 83 38.25 C82.505 39.03375 82.01 39.8175 81.5 40.625 C65 66.75 65 66.75 63.49902344 69.12646484 C62.5021806 70.70485345 61.50543531 72.28330366 60.50878906 73.86181641 C57.96129354 77.89632289 55.41194901 81.92964187 52.859375 85.9609375 C47.17823082 94.93718075 41.53483182 103.93264317 36 113 C63.30237811 102.13876857 63.30237811 102.13876857 83.25390625 82.23828125 C83.50011719 81.49964844 83.74632812 80.76101562 84 80 C86.27494247 83.4124137 86.16780122 84.98914695 85.53125 88.953125 C84.67706731 92.24424066 83.12945064 94.36620579 81 97 C80.34257812 97.81404297 80.34257812 97.81404297 79.671875 98.64453125 C71.69176629 107.57177408 59.44760704 112.38888371 48.875 117.5625 C47.96218262 118.01665283 47.04936523 118.47080566 46.10888672 118.9387207 C45.24537598 119.35210693 44.38186523 119.76549316 43.4921875 120.19140625 C42.72245605 120.56467041 41.95272461 120.93793457 41.15966797 121.32250977 C38.6394665 122.11309976 37.42562019 122.00128494 35 121 C33.75 118.9375 33.75 118.9375 33 117 C33.53069061 120.82097239 34.49701566 123.06171403 37 126 C39.08360814 124.9922735 39.08360814 124.9922735 41.30639648 123.60009766 C43.86113162 122.08249283 46.43967722 120.72506426 49.09765625 119.3984375 C71.42698595 109.05339007 71.42698595 109.05339007 86.375 90.5625 C86.58125 89.716875 86.7875 88.87125 87 88 C89.5166238 90.5166238 89.38193779 91.56490708 89.5 95.0625 C89.5515625 95.96097656 89.603125 96.85945313 89.65625 97.78515625 C88.97387153 101.12799838 88.21738766 102.21278971 86.2109375 104.859375 C82.09089775 110.69202759 80.92431853 117.15240584 79.55664062 124.02124023 C79.12293164 126.19788039 78.66169483 128.36725824 78.1953125 130.53710938 C76.29050939 139.18566413 76.29050939 139.18566413 76 148 C77.39949725 149.51164605 77.39949725 149.51164605 79.4375 150.375 C87.36961038 154.75036338 93.43227861 160.32398429 97.1875 168.625 C98.34286034 173.42418912 98.15732133 178.08807852 98 183 C97.01 183 96.02 183 95 183 C94.79246094 182.443125 94.58492187 181.88625 94.37109375 181.3125 C90.10064201 170.73464463 83.16067297 164.17741298 73 159 C72.01 159 71.02 159 70 159 C70.70125 159.4125 71.4025 159.825 72.125 160.25 C80.50067193 165.34823509 88.64501581 170.84924349 92.3828125 180.29296875 C93.6975914 186.05968888 93.60433423 192.13936341 93 198 C92.34 198.99 91.68 199.98 91 201 C90.85304688 200.38253906 90.70609375 199.76507813 90.5546875 199.12890625 C86.48167464 183.74977148 75.85754934 174.97342261 62.56640625 167.01953125 C62.00940033 166.71276962 61.45239441 166.406008 60.87850952 166.08995056 C59 165 59 165 56.92153931 163.51856995 C47.92573474 157.64606979 39.12219276 158.13814327 28.76953125 158.1953125 C26.92435482 158.18404495 25.07919271 158.17015675 23.23405457 158.15377808 C18.41220602 158.11792877 13.59099397 158.1173425 8.76904297 158.12445068 C3.83484708 158.12536744 -1.09911514 158.09245051 -6.03320312 158.0625 C-15.68886883 158.00881531 -25.3442014 157.99243445 -35 158 C-33.73703601 155.77709749 -32.47258107 153.55506521 -31.20727539 151.33349609 C-30.85350075 150.71047104 -30.4997261 150.08744598 -30.13523102 149.44554138 C-27.06713659 144.06317107 -23.80174938 138.82724663 -20.4375 133.625 C-19.21917317 131.72582395 -18.00175805 129.8260628 -16.78515625 127.92578125 C-16.16398926 126.95592285 -15.54282227 125.98606445 -14.90283203 124.98681641 C-11.69365795 119.94947541 -8.53446934 114.88111103 -5.375 109.8125 C-0.93647333 102.69564017 3.51377733 95.58689853 8 88.5 C13.168102 80.33481886 18.29093485 72.14181624 23.40722656 63.9440918 C27.99022895 56.60477467 32.59884786 49.28210357 37.23242188 41.97460938 C37.91401367 40.89856445 37.91401367 40.89856445 38.609375 39.80078125 C39.00092773 39.18372314 39.39248047 38.56666504 39.79589844 37.9309082 C41.22603845 35.63752269 42.61466196 33.32066659 44 31 C33.70739785 31.00533793 26.18802734 33.60198571 17.0625 38.1875 C14.72107688 39.3289275 12.37862797 40.46825318 10.03515625 41.60546875 C8.89191895 42.16540527 7.74868164 42.7253418 6.57080078 43.30224609 C0.79075989 46.05039353 -5.0951605 48.53286723 -11 51 C-10.41520624 45.03642519 -9.54541044 39.29769898 -8.22265625 33.45703125 C-8.05124619 32.6849382 -7.87983612 31.91284515 -7.70323181 31.11735535 C-7.34326439 29.50098334 -6.98098166 27.88512532 -6.61645508 26.26977539 C-6.0618053 23.80941841 -5.51572217 21.3472719 -4.97070312 18.88476562 C-4.61769147 17.30457483 -4.26419265 15.72449277 -3.91015625 14.14453125 C-3.74862564 13.4162764 -3.58709503 12.68802155 -3.42066956 11.93769836 C-2.48941744 7.83198821 -1.33877712 4.01633135 0 0 Z " fill="#1B95CB" transform="translate(214,39)"/>
<path d="M0 0 C17.49 0 34.98 0 53 0 C51.79511913 7.22928521 50.58501324 14.28203328 48.90625 21.38671875 C48.71405884 22.21404007 48.52186768 23.04136139 48.32385254 23.89375305 C47.71940354 26.4925002 47.10988645 29.09002419 46.5 31.6875 C45.89128886 34.29595074 45.28363011 36.90464487 44.67614746 39.51338196 C44.30089144 41.12313473 43.92473987 42.73267913 43.54748535 44.34196472 C42.32740167 49.55319301 41.15083181 54.77304817 40 60 C42.91724998 58.70964655 45.83375752 57.41762895 48.75 56.125 C49.575 55.76019531 50.4 55.39539063 51.25 55.01953125 C52.04921875 54.66503906 52.8484375 54.31054688 53.671875 53.9453125 C54.77160645 53.45828857 54.77160645 53.45828857 55.89355469 52.96142578 C57.31233444 52.31386497 58.70983766 51.61779252 60.08300781 50.87841797 C62 50 62 50 65 50 C67.39832564 84.35447736 67.39832564 84.35447736 54.68017578 99.87255859 C51.86221389 103.44066669 49.56031923 107.31573972 47.1875 111.1875 C46.20380464 112.7486463 45.21807437 114.30851195 44.23046875 115.8671875 C39.81979614 122.86380932 35.44576524 129.88345646 31.07495117 136.9050293 C24.4474657 147.53471803 24.4474657 147.53471803 22 151 C21.67 151 21.34 151 21 151 C21.00902344 150.43152344 21.01804687 149.86304688 21.02734375 149.27734375 C20.84699553 144.58044874 20.31814508 141.7651033 16.875 138.4375 C16.24078125 137.87546875 15.6065625 137.3134375 14.953125 136.734375 C12.99484678 134.99542394 11.32694368 133.17575196 9.625 131.1875 C6.99090633 128.13594952 4.32409724 125.119311 1.625 122.125 C0.50158203 120.87589844 0.50158203 120.87589844 -0.64453125 119.6015625 C-2.27880754 117.79654093 -3.92274744 116.00024026 -5.57421875 114.2109375 C-6.39535156 113.31632812 -7.21648437 112.42171875 -8.0625 111.5 C-8.81660156 110.6853125 -9.57070312 109.870625 -10.34765625 109.03125 C-12 107 -12 107 -12 105 C-0.45 105 11.1 105 23 105 C23 84.87 23 64.74 23 44 C20.48375 50.125625 17.9675 56.25125 15.375 62.5625 C14.59431152 64.46201416 13.81362305 66.36152832 13.00927734 68.31860352 C12.36802009 69.88031199 11.72690171 71.44207749 11.0859375 73.00390625 C10.56959244 74.26129356 10.56959244 74.26129356 10.04281616 75.54408264 C8.40025648 79.55171568 6.76979734 83.56330666 5.17285156 87.58935547 C4.75599594 88.64025612 4.75599594 88.64025612 4.33071899 89.71238708 C3.58959534 91.58702338 2.85251051 93.46325498 2.11572266 95.33959961 C1 98 1 98 0 99 C-2.0708472 99.1584265 -4.14678029 99.25124422 -6.22265625 99.31640625 C-8.11274414 99.37924805 -8.11274414 99.37924805 -10.04101562 99.44335938 C-11.38150736 99.48317596 -12.7220022 99.52288814 -14.0625 99.5625 C-15.40691523 99.60568042 -16.7513166 99.64929456 -18.09570312 99.69335938 C-21.3970234 99.79985358 -24.69842236 99.9018646 -28 100 C-26.69540214 101.40528111 -25.39080057 102.81055876 -24.08618164 104.21582031 C-22.98345934 105.40917062 -21.88500325 106.60647678 -20.79077148 107.80761719 C-18.43177596 110.39560395 -16.08440582 112.92014941 -13.5390625 115.328125 C-11.64419049 117.17056972 -10.27239563 118.68971652 -9 121 C-11.03541117 129.16667021 -14.84286036 136.85997974 -18.1875 144.5625 C-20.105625 148.996875 -22.02375 153.43125 -24 158 C-38.19 158 -52.38 158 -67 158 C-63.62550607 147.87651822 -63.62550607 147.87651822 -61.89379883 143.8996582 C-61.50457245 143.00041122 -61.11534607 142.10116425 -60.71432495 141.17466736 C-60.29941803 140.22628494 -59.88451111 139.27790253 -59.45703125 138.30078125 C-59.01666534 137.2853273 -58.57629944 136.26987335 -58.12258911 135.22364807 C-57.17929566 133.04903964 -56.23440607 130.875123 -55.28805542 128.70184326 C-52.7746718 122.92861392 -50.27415636 117.14981772 -47.7734375 111.37109375 C-47.27373947 110.21691956 -46.77404144 109.06274536 -46.25920105 107.87359619 C-42.08997993 98.23306337 -37.99391804 88.56343425 -33.9375 78.875 C-27.63091254 63.82473686 -21.23815432 48.81230916 -14.8125 33.8125 C-14.35793427 32.75021179 -13.90336853 31.68792358 -13.43502808 30.59344482 C-12.13126426 27.54737063 -10.82571287 24.50206934 -9.51953125 21.45703125 C-9.13683075 20.56273911 -8.75413025 19.66844696 -8.35983276 18.74705505 C-5.65666877 12.45487972 -2.83544325 6.23797515 0 0 Z " fill="#020202" transform="translate(155,39)"/>
<path d="M0 0 C2.27494247 3.4124137 2.16780122 4.98914695 1.53125 8.953125 C0.67706731 12.24424066 -0.87054936 14.36620579 -3 17 C-3.43828125 17.54269531 -3.8765625 18.08539063 -4.328125 18.64453125 C-12.30823371 27.57177408 -24.55239296 32.38888371 -35.125 37.5625 C-36.03781738 38.01665283 -36.95063477 38.47080566 -37.89111328 38.9387207 C-38.75462402 39.35210693 -39.61813477 39.76549316 -40.5078125 40.19140625 C-41.27754395 40.56467041 -42.04727539 40.93793457 -42.84033203 41.32250977 C-45.37518342 42.11769546 -46.58117093 42.08259193 -49 41 C-50.25 37.9375 -50.25 37.9375 -51 35 C-47.57673299 32.83060404 -44.07128268 31.06722537 -40.37915039 29.40063477 C-17.29105068 19.698442 -17.29105068 19.698442 -0.74609375 2.23828125 C-0.49988281 1.49964844 -0.25367188 0.76101562 0 0 Z " fill="#9A9A9A" transform="translate(298,119)"/>
<path d="M0 0 C2.5166238 2.5166238 2.38193779 3.56490708 2.5 7.0625 C2.34921631 13.47080678 0.37897776 17.38360778 -4 22 C-11.1342655 28.12815113 -19.7779143 32.49810199 -28 37 C-28.97066406 37.53367188 -29.94132812 38.06734375 -30.94140625 38.6171875 C-38.3802895 42.54172501 -38.3802895 42.54172501 -43 42 C-45.8125 39.5 -45.8125 39.5 -48 37 C-44.69846773 34.97584848 -41.36681792 33.12759491 -37.90234375 31.3984375 C-15.57301405 21.05339007 -15.57301405 21.05339007 -0.625 2.5625 C-0.41875 1.716875 -0.2125 0.87125 0 0 Z " fill="#939495" transform="translate(301,127)"/>
<path d="M0 0 C0.66 1.32 1.32 2.64 2 4 C-9.30736958 20.48991397 -27.44818777 28.54300299 -45 37 C-45 37.66 -45 38.32 -45 39 C-46.75 38.875 -46.75 38.875 -49 38 C-51.3125 35.1875 -51.3125 35.1875 -53 32 C-52.75 29.625 -52.75 29.625 -52 28 C-50 31 -50 31 -49 33 C-43.03475299 32.06715737 -37.97772993 29.35674502 -32.58154297 26.75488281 C-30.77496636 25.88699397 -28.95977766 25.03710612 -27.14453125 24.1875 C-16.71303063 19.18499031 -5.73448005 12.97820737 -0.625 2.0625 C-0.41875 1.381875 -0.2125 0.70125 0 0 Z " fill="#F0F1F2" transform="translate(299,127)"/>
<path d="M0 0 C9.20475219 0.9852594 15.83703794 7.24398755 21.625 14.125 C26.05634006 19.6415662 26.25029631 24.49703692 25.5625 31.375 C25.46066406 32.43460938 25.35882813 33.49421875 25.25390625 34.5859375 C25.17011719 35.38257813 25.08632813 36.17921875 25 37 C24.67 37 24.34 37 24 37 C23.97421875 36.23816406 23.9484375 35.47632813 23.921875 34.69140625 C23.34577562 24.20377897 21.10175378 17.21802956 13.37109375 9.92578125 C9.83139215 7.0508671 6.03711882 4.68110756 2.125 2.34765625 C1.42375 1.90292969 0.7225 1.45820313 0 1 C0 0.67 0 0.34 0 0 Z " fill="#CCF1FC" transform="translate(283,197)"/>
<path d="M0 0 C3.17661443 2.9460537 3.69016466 4.58484637 4 9 C3.77962219 13.01292612 3.42035029 17.00343879 3 21 C2.67 21 2.34 21 2 21 C1.93941406 20.23816406 1.87882812 19.47632813 1.81640625 18.69140625 C1.30963298 12.44640026 0.7260533 6.22331399 0 0 Z " fill="#B0EEFE" transform="translate(305,213)"/>
<path d="M0 0 C5.7097955 0.41778991 8.60957142 2.57546571 13 6 C12.34 6.66 11.68 7.32 11 8 C9.16399255 6.85845641 7.33125195 5.71165684 5.5 4.5625 C4.4790625 3.92441406 3.458125 3.28632813 2.40625 2.62890625 C1.6121875 2.09136719 0.818125 1.55382812 0 1 C0 0.67 0 0.34 0 0 Z " fill="#DCF4FB" transform="translate(283,197)"/>
<path d="M0 0 C0.66 0.33 1.32 0.66 2 1 C1.67 1.99 1.34 2.98 1 4 C-2.0625 5.1875 -2.0625 5.1875 -5 6 C-5.33 5.01 -5.66 4.02 -6 3 C-4.03533587 1.93224776 -2.03144641 0.93446535 0 0 Z " fill="#E9E9E9" transform="translate(259,157)"/>
</svg>
