<?xml version="1.0" encoding="UTF-8"?>
<svg version="1.1" xmlns="http://www.w3.org/2000/svg" width="500" height="500">
<path d="M0 0 C1.35513954 0.00539291 1.35513954 0.00539291 2.73765564 0.01089478 C3.68389801 0.01074875 4.63014038 0.01060272 5.60505676 0.01045227 C8.74880729 0.0111518 11.89249938 0.01894608 15.03623962 0.02676392 C17.20957405 0.02862795 19.3829089 0.03005192 21.5562439 0.03105164 C27.28884533 0.03487795 33.0214216 0.0447092 38.75401306 0.05575562 C44.59873616 0.0659673 50.44346331 0.07054873 56.28819275 0.07559204 C67.76541737 0.08633137 79.24262328 0.10340915 90.71983337 0.12442017 C90.71983337 4.75168241 89.23352577 7.53222822 87.13389587 11.50332642 C86.57514015 12.58322342 86.57514015 12.58322342 86.00509644 13.68493652 C84.79282274 16.02308929 83.5690789 18.35501683 82.34483337 20.68692017 C81.50816553 22.29408575 80.67214787 23.90158997 79.83677673 25.50942993 C77.820765 29.38511325 75.79565884 33.25594803 73.76701355 37.12503052 C72.40062147 39.73389406 71.04235886 42.34695258 69.68467712 44.96035767 C65.15208432 53.65875409 60.45247447 62.25656186 55.69615173 70.8343811 C52.45764229 76.70407101 49.37849701 82.63491836 46.44395447 88.66226196 C44.75690251 92.11613975 42.97833193 95.49740826 41.10411072 98.85415649 C40.65675568 99.65630081 40.20940063 100.45844513 39.74848938 101.28489685 C39.4090329 101.89193954 39.06957642 102.49898224 38.71983337 103.12442017 C39.33148849 103.13472763 39.94314362 103.1450351 40.57333374 103.15565491 C46.91565653 103.26348761 53.25783051 103.37810358 59.59996033 103.49673462 C61.96972045 103.54015827 64.33951337 103.58182766 66.70933533 103.62173462 C70.1074667 103.67925785 73.5054318 103.7430032 76.90342712 103.80801392 C77.97008102 103.82472641 79.03673492 103.8414389 80.13571167 103.85865784 C81.11665298 103.87860306 82.0975943 103.89854828 83.10826111 103.9190979 C84.4106498 103.94241432 84.4106498 103.94241432 85.73934937 103.96620178 C87.71983337 104.12442017 87.71983337 104.12442017 88.71983337 105.12442017 C88.80731545 107.05109524 88.82680671 108.98093878 88.81748962 110.90957642 C88.81426697 112.07940063 88.81104431 113.24922485 88.807724 114.45449829 C88.79934509 115.68619751 88.79096619 116.91789673 88.78233337 118.18692017 C88.77782166 119.42248657 88.77330994 120.65805298 88.7686615 121.93106079 C88.75682945 124.99556134 88.74034511 128.05996738 88.71983337 131.12442017 C85.7773661 132.5956538 83.16798316 132.24366781 79.88340759 132.23794556 C79.18085846 132.23809158 78.47830933 132.23823761 77.75447083 132.23838806 C75.42778964 132.23769031 73.1011881 132.22990435 70.77452087 132.22207642 C69.16312199 132.22021175 67.55172253 132.21878807 65.94032288 132.2177887 C61.69554585 132.21396737 57.45080295 132.20414034 53.20603943 132.19308472 C48.87600669 132.18286235 44.54596845 132.1782893 40.21592712 132.17324829 C31.71721353 132.16251775 23.2185277 132.14544592 14.71983337 132.12442017 C15.79896186 135.42005188 16.88906756 138.68125529 18.23204041 141.87905884 C18.51217987 142.54962814 18.79231934 143.22019745 19.08094788 143.91108704 C19.37685822 144.61441666 19.67276855 145.31774628 19.97764587 146.04238892 C20.60933976 147.55858853 21.24084467 149.07486689 21.87217712 150.59121704 C22.86199331 152.9621893 23.8534502 155.33243912 24.84825134 157.70132446 C25.812741 160.00058621 26.77064706 162.30250125 27.72764587 164.60488892 C28.02760468 165.31429123 28.32756348 166.02369354 28.63661194 166.7545929 C29.85931251 169.70652599 30.71983337 171.8957294 30.71983337 175.12442017 C20.15983337 175.12442017 9.59983337 175.12442017 -1.28016663 175.12442017 C-3.61253854 169.29349039 -5.9150347 163.52589936 -8.03016663 157.62442017 C-8.45813538 156.43848267 -8.88610413 155.25254517 -9.32704163 154.03067017 C-10.28016663 151.12442017 -10.28016663 151.12442017 -10.28016663 149.12442017 C-26.45016663 149.12442017 -42.62016663 149.12442017 -59.28016663 149.12442017 C-60.27016663 152.75442017 -61.26016663 156.38442017 -62.28016663 160.12442017 C-63.0995842 162.67750163 -63.94864502 165.22149701 -64.84266663 167.74942017 C-65.25645569 168.93793579 -65.67024475 170.12645142 -66.09657288 171.35098267 C-67.28016663 174.12442017 -67.28016663 174.12442017 -69.28016663 175.12442017 C-71.60432958 175.21028826 -73.93099969 175.2315306 -76.25672913 175.22207642 C-76.94197662 175.22066147 -77.62722412 175.21924652 -78.33323669 175.2177887 C-80.52392423 175.21218691 -82.71450993 175.19963423 -84.90516663 175.18692017 C-86.38954015 175.18190539 -87.87391528 175.17734244 -89.35829163 175.17324829 C-92.99894978 175.16221694 -96.63954827 175.14495116 -100.28016663 175.12442017 C-100.61016663 174.46442017 -100.94016663 173.80442017 -101.28016663 173.12442017 C-100.39051819 170.66201782 -100.39051819 170.66201782 -98.92079163 167.41348267 C-98.35302911 166.13344665 -97.78742073 164.85245382 -97.223526 163.57070923 C-96.91084778 162.861604 -96.59816956 162.15249878 -96.27601624 161.42190552 C-94.43350085 157.17111096 -92.69767353 152.87663179 -90.95204163 148.58535767 C-90.36740898 147.1512429 -90.36740898 147.1512429 -89.77096558 145.68815613 C-88.94943536 143.67213391 -88.12842904 141.65589813 -87.3079071 139.63946533 C-85.55350672 135.3280292 -83.79635991 131.01771402 -82.03939819 126.70732117 C-81.13259065 124.48255542 -80.22592426 122.25773213 -79.31939697 120.03285217 C-74.7543696 108.82988954 -70.17484178 97.63287775 -65.59266663 86.43692017 C-64.53418981 83.85029505 -63.47572563 81.26366563 -62.41801453 78.67672729 C-61.74229441 77.02692603 -61.06458321 75.37793867 -60.38475037 73.72982788 C-58.50830132 69.17274543 -56.6821756 64.60070782 -54.90272522 60.00479126 C-54.50361435 58.98958908 -54.10450348 57.9743869 -53.69329834 56.92842102 C-52.91913832 54.95742782 -52.15708601 52.98162548 -51.40866089 51.00071716 C-51.05841354 50.11623398 -50.7081662 49.23175079 -50.3473053 48.32046509 C-49.89251045 47.13972664 -49.89251045 47.13972664 -49.42852783 45.93513489 C-48.28016663 44.12442017 -48.28016663 44.12442017 -46.31130981 43.36352539 C-43.78637925 43.06629175 -41.39828436 43.11851428 -38.85829163 43.24551392 C-37.32108459 43.31802368 -37.32108459 43.31802368 -35.75282288 43.39199829 C-34.68934631 43.44807251 -33.62586975 43.50414673 -32.53016663 43.56192017 C-31.45122131 43.6141272 -30.372276 43.66633423 -29.26063538 43.72012329 C-26.6001724 43.84961485 -23.9401021 43.98457377 -21.28016663 44.12442017 C-13.28016663 64.12442017 -5.28016663 84.12442017 2.71983337 104.12442017 C3.09156677 103.37571655 3.46330017 102.62701294 3.84629822 101.85562134 C10.47965038 88.50817205 17.13410792 75.18115795 24.12998962 62.01895142 C27.95712265 54.81395089 31.68907483 47.55874321 35.43101501 40.30923462 C35.95945007 39.28918335 36.48788513 38.26913208 37.03233337 37.21817017 C37.50284119 36.30744751 37.973349 35.39672485 38.45811462 34.45840454 C39.71983337 32.12442017 39.71983337 32.12442017 41.71983337 29.12442017 C41.12070633 29.12664078 40.52157928 29.12886139 39.90429688 29.13114929 C33.6918548 29.15320181 27.47942376 29.16832662 21.26695251 29.17935181 C18.94565886 29.1843935 16.6243684 29.19122668 14.30308533 29.19985962 C10.97454543 29.21193241 7.64604735 29.21764995 4.31748962 29.22207642 C2.75031944 29.22981834 2.75031944 29.22981834 1.15148926 29.23771667 C0.1905687 29.23779221 -0.77035187 29.23786774 -1.76039124 29.23794556 C-3.03613258 29.24127647 -3.03613258 29.24127647 -4.33764648 29.24467468 C-6.28016663 29.12442017 -6.28016663 29.12442017 -7.28016663 28.12442017 C-7.3799972 26.13684989 -7.41097416 24.14574497 -7.41297913 22.15567017 C-7.41426819 20.94524048 -7.41555725 19.73481079 -7.41688538 18.48770142 C-7.41301819 17.2128186 -7.409151 15.93793579 -7.40516663 14.62442017 C-7.40903381 13.34953735 -7.412901 12.07465454 -7.41688538 10.76113892 C-7.41559631 9.55070923 -7.41430725 8.34027954 -7.41297913 7.09317017 C-7.4118512 5.97361938 -7.41072327 4.8540686 -7.40956116 3.70059204 C-7.16001863 -1.2676584 -4.29934699 0.00722913 0 0 Z M-35.28016663 80.12442017 C-35.74857971 81.49993042 -35.74857971 81.49993042 -36.22645569 82.90322876 C-37.40169765 86.35205526 -38.58043168 89.79968017 -39.76014709 93.24697876 C-40.26726409 94.7303844 -40.77347238 96.21410105 -41.27870178 97.69815063 C-43.87440465 105.32077906 -46.46788818 112.9051848 -49.60731506 120.32608032 C-50.3969755 122.11660147 -50.3969755 122.11660147 -50.28016663 124.12442017 C-40.05016663 124.12442017 -29.82016663 124.12442017 -19.28016663 124.12442017 C-21.23128235 118.271073 -23.19396675 112.42428608 -25.19813538 106.58926392 C-25.46024307 105.82513687 -25.72235077 105.06100983 -25.99240112 104.27372742 C-26.81712461 101.86966624 -27.6423855 99.46578996 -28.46766663 97.06192017 C-29.03215556 95.41675016 -29.59660899 93.77156797 -30.161026 92.12637329 C-31.5336633 88.12558158 -32.90678208 84.12495542 -34.28016663 80.12442017 C-34.61016663 80.12442017 -34.94016663 80.12442017 -35.28016663 80.12442017 Z " fill="#F1F1F1" transform="translate(219.28016662597656,149.87557983398438)"/>
<path d="M0 0 C1.35513954 0.00539291 1.35513954 0.00539291 2.73765564 0.01089478 C3.68389801 0.01074875 4.63014038 0.01060272 5.60505676 0.01045227 C8.74880729 0.0111518 11.89249938 0.01894608 15.03623962 0.02676392 C17.20957405 0.02862795 19.3829089 0.03005192 21.5562439 0.03105164 C27.28884533 0.03487795 33.0214216 0.0447092 38.75401306 0.05575562 C44.59873616 0.0659673 50.44346331 0.07054873 56.28819275 0.07559204 C67.76541737 0.08633137 79.24262328 0.10340915 90.71983337 0.12442017 C90.71983337 1.44442017 90.71983337 2.76442017 90.71983337 4.12442017 C90.22483337 3.13442017 90.22483337 3.13442017 89.71983337 2.12442017 C58.03983337 2.12442017 26.35983337 2.12442017 -6.28016663 2.12442017 C-6.28016663 10.37442017 -6.28016663 18.62442017 -6.28016663 27.12442017 C10.21983337 27.12442017 26.71983337 27.12442017 43.71983337 27.12442017 C43.38983337 27.78442017 43.05983337 28.44442017 42.71983337 29.12442017 C35.7597989 29.14968854 28.79977618 29.16725239 21.83970642 29.17935181 C19.46991026 29.18439358 17.10011722 29.19122682 14.73033142 29.19985962 C11.33229299 29.21193206 7.93429552 29.21764987 4.53623962 29.22207642 C3.46958572 29.2272377 2.40293182 29.23239899 1.30395508 29.23771667 C0.32301376 29.23779221 -0.65792755 29.23786774 -1.66859436 29.23794556 C-2.53685349 29.24016617 -3.40511261 29.24238678 -4.29968262 29.24467468 C-6.28016663 29.12442017 -6.28016663 29.12442017 -7.28016663 28.12442017 C-7.3799972 26.13684989 -7.41097416 24.14574497 -7.41297913 22.15567017 C-7.41426819 20.94524048 -7.41555725 19.73481079 -7.41688538 18.48770142 C-7.41301819 17.2128186 -7.409151 15.93793579 -7.40516663 14.62442017 C-7.40903381 13.34953735 -7.412901 12.07465454 -7.41688538 10.76113892 C-7.41559631 9.55070923 -7.41430725 8.34027954 -7.41297913 7.09317017 C-7.4118512 5.97361938 -7.41072327 4.8540686 -7.40956116 3.70059204 C-7.16001863 -1.2676584 -4.29934699 0.00722913 0 0 Z " fill="#5A5A5A" transform="translate(219.28016662597656,149.87557983398438)"/>
</svg>
